<svg version="1.1" id="Layer_1" xmlns="http://www.w3.org/2000/svg" xmlns:xlink="http://www.w3.org/1999/xlink" x="0px" y="0px" viewBox="0 0 500 500" style="width: 166px;" xml:space="preserve" data-imageid="profile-analysis-41" imageName="Profile Analysis" class="illustrations_image">
<style type="text/css">
	.st0_profile-analysis-41{fill:#FFFFFF;}
	.st1_profile-analysis-41{fill:#093F68;}
	.st2_profile-analysis-41{fill:#DFEAEF;}
	.st3_profile-analysis-41{fill:#F56132;}
	.st4_profile-analysis-41{fill:#70CC40;}
	.st5_profile-analysis-41{fill:#FFBC0E;}
	.st6_profile-analysis-41{fill:#68E1FD;}
	.st7_profile-analysis-41{fill:#FFC9B0;}
	.st8_profile-analysis-41{fill:#725858;}
</style>
<g id="graph_profile-analysis-41">
	<path class="st0_profile-analysis-41" d="M50.1,145.9h372.2l0,0v232c0,4.4-3.6,8-8,8H58.1c-4.4,0-8-3.6-8-8V145.9L50.1,145.9z"/>
	<path class="st1_profile-analysis-41" d="M407.5,387.7H64.9c-9.2,0-16.6-7.4-16.6-16.6V145.9c0-1,0.8-1.8,1.8-1.8c0,0,0,0,0,0h372.2&#10;&#9;&#9;c1,0,1.8,0.8,1.8,1.8c0,0,0,0,0,0v225.2C424.1,380.3,416.7,387.7,407.5,387.7z M51.9,147.7v223.4c0,7.1,5.8,12.9,12.9,12.9h342.7&#10;&#9;&#9;c7.1,0,12.9-5.8,12.9-12.9V147.8L51.9,147.7z"/>
	<path class="st0_profile-analysis-41" d="M58.1,114.3h356.2c4.4,0,8,3.6,8,8v23.5l0,0H50.1l0,0v-23.5C50.1,117.9,53.7,114.3,58.1,114.3z"/>
	<path class="st1_profile-analysis-41" d="M422.3,147.8H50.1c-1,0-1.8-0.8-1.8-1.9l0,0v-16.8c0-9.2,7.4-16.6,16.6-16.6h342.7c9.2,0,16.6,7.4,16.6,16.6&#10;&#9;&#9;v16.8C424.2,146.9,423.3,147.7,422.3,147.8z M51.9,144.1h368.5v-14.9c0-7.1-5.8-12.9-12.9-12.9H64.9c-7.1,0-12.9,5.8-12.9,12.9&#10;&#9;&#9;L51.9,144.1z"/>
	<path class="st2_profile-analysis-41" d="M389.8,199.4H257.7c-1,0.1-1.9-0.7-2-1.7s0.7-1.9,1.7-2c0.1,0,0.2,0,0.3,0h132.1c1-0.1,1.9,0.7,2,1.7&#10;&#9;&#9;c0.1,1-0.7,1.9-1.7,2C390,199.5,389.9,199.5,389.8,199.4z"/>
	<path class="st2_profile-analysis-41" d="M389.8,228.7H257.7c-1,0.1-1.9-0.7-2-1.7s0.7-1.9,1.7-2c0.1,0,0.2,0,0.3,0h132.1c1-0.1,1.9,0.7,2,1.7&#10;&#9;&#9;c0.1,1-0.7,1.9-1.7,2C390,228.7,389.9,228.7,389.8,228.7z"/>
	<path class="st1_profile-analysis-41" d="M401.6,362.7H260.4c-1,0-1.8-0.8-1.8-1.8v-83.7c0.1-1,1-1.8,2-1.7c0.9,0.1,1.6,0.8,1.7,1.7V359h139.3&#10;&#9;&#9;c1,0.1,1.8,1,1.7,2C403.2,361.9,402.5,362.6,401.6,362.7L401.6,362.7z"/>
	<rect x="282.2" y="336.9" class="st3_profile-analysis-41" width="16.2" height="24"/>
	<path class="st1_profile-analysis-41" d="M298.4,362.7h-16.2c-1,0-1.8-0.8-1.8-1.8c0,0,0,0,0,0v-24c0-1,0.8-1.8,1.9-1.8h16.2c1,0,1.8,0.8,1.9,1.8v24&#10;&#9;&#9;C300.3,361.8,299.5,362.7,298.4,362.7C298.4,362.7,298.4,362.7,298.4,362.7z M284,359h12.5v-20.3H284V359z"/>
	<rect x="319.3" y="293.9" class="st4_profile-analysis-41" width="16.2" height="66.9"/>
	<path class="st1_profile-analysis-41" d="M335.5,362.7h-16.2c-1,0-1.8-0.8-1.8-1.8c0,0,0,0,0,0v-66.9c0-1,0.8-1.9,1.9-1.9l0,0h16.2c1,0,1.8,0.8,1.8,1.8&#10;&#9;&#9;c0,0,0,0,0,0v66.9C337.3,361.8,336.5,362.7,335.5,362.7L335.5,362.7z M321.1,359h12.5v-63.2h-12.5V359z"/>
	<rect x="356.3" y="314.6" class="st5_profile-analysis-41" width="16.2" height="46.2"/>
	<path class="st1_profile-analysis-41" d="M372.5,362.7h-16.2c-1,0-1.8-0.8-1.8-1.8v-46.2c0-1,0.8-1.8,1.8-1.8c0,0,0,0,0,0h16.2c1,0,1.9,0.8,1.9,1.9l0,0&#10;&#9;&#9;v46.2C374.4,361.8,373.6,362.7,372.5,362.7C372.5,362.7,372.5,362.7,372.5,362.7z M358.2,359h12.5v-42.6h-12.5V359z"/>
	<path class="st2_profile-analysis-41" d="M285.9,316.4c-1,0-1.8-0.8-1.8-1.8c0-0.5,0.2-1,0.5-1.3l41.5-41.8c0.7-0.6,1.7-0.7,2.4-0.2l35.9,26.8l19.9-15&#10;&#9;&#9;c0.8-0.6,2-0.5,2.6,0.4c0.6,0.8,0.5,2-0.4,2.6l0,0l-21,15.9c-0.7,0.5-1.6,0.5-2.2,0l-35.8-26.7l-40.4,40.6&#10;&#9;&#9;C286.8,316.2,286.4,316.4,285.9,316.4z"/>
</g>
<g id="character_profile-analysis-41">
	<path class="st6_profile-analysis-41 targetColor" d="M219.5,385.9v-59.1c0-19.6-15.9-35.4-35.4-35.4l0,0h-55.9c-19.6,0-35.4,15.9-35.4,35.4v59L219.5,385.9z" style="fill: rgb(104, 225, 253);"/>
	<path class="st1_profile-analysis-41" d="M219.5,387.7H92.8c-1,0-1.8-0.8-1.8-1.8c0,0,0,0,0,0v-59c0-20.6,16.7-37.3,37.3-37.3h55.9&#10;&#9;&#9;c20.6,0,37.2,16.7,37.3,37.3v59C221.4,386.9,220.6,387.7,219.5,387.7C219.5,387.7,219.5,387.7,219.5,387.7z M94.6,384h123.1v-57.2&#10;&#9;&#9;c0-18.5-15-33.6-33.6-33.6h-55.9c-18.5,0-33.6,15-33.6,33.6L94.6,384z"/>
	<polygon class="st0_profile-analysis-41" points="179.3,291.4 156.6,377.3 133.4,291.4 &#9;"/>
	<path class="st1_profile-analysis-41" d="M156.6,379.1c-0.8,0-1.6-0.6-1.8-1.4l-23.2-85.9c-0.3-1,0.3-2,1.3-2.3c0.2,0,0.3-0.1,0.5-0.1h45.9&#10;&#9;&#9;c1,0,1.8,0.8,1.8,1.8c0,0.2,0,0.3-0.1,0.5l-22.7,85.9C158.1,378.6,157.4,379.1,156.6,379.1L156.6,379.1z M135.8,293.2l20.8,76.9&#10;&#9;&#9;l20.3-76.9H135.8z"/>
	<path class="st7_profile-analysis-41" d="M148.6,284.7h17.7l0,0v13.6c0,2.3-1.8,4.1-4.1,4.1h-9.6c-2.3,0-4.1-1.8-4.1-4.1L148.6,284.7L148.6,284.7z"/>
	<path class="st1_profile-analysis-41" d="M158.8,304.2h-2.7c-5.2,0-9.4-4.2-9.4-9.4v-10.2c0-1,0.8-1.9,1.8-1.9h0h17.7c1,0,1.9,0.8,1.9,1.9l0,0v10.2&#10;&#9;&#9;C168.2,300.1,164,304.2,158.8,304.2z M150.4,286.5v8.4c0,3.1,2.6,5.7,5.7,5.7h2.7c3.1,0,5.7-2.5,5.7-5.7v-8.4H150.4z"/>
	<path class="st8_profile-analysis-41" d="M96.2,235.5c-8.2-3.1-7.7-9.4-9-17.5c-1.2-8-2-16.1-2.2-24.1c-0.3-9.2,0-18.6,3.5-27.1&#10;&#9;&#9;c4.5-10.9,13.3-18,25.2-17.1c-0.3-16.1,9.3-26.1,26.5-27c27.5-1.5,43.3,22.9,58.7,20.7s19.5-9,19.5-9s9.1,15.7-3.3,31.1&#10;&#9;&#9;c0,0,12.1-3.5,13.6,12.6s-8.2,59-8.2,59l-11-1.9c-4.6-0.8-10.4,0.3-15,0.5l-34.4,1C142.8,237.1,114.9,242.6,96.2,235.5z"/>
	<path class="st1_profile-analysis-41" d="M121,240.9c-9.1,0-18-0.9-25.4-3.7l0,0c-8.1-3.1-8.9-9.2-9.7-15.6c-0.1-1.1-0.3-2.2-0.4-3.3&#10;&#9;&#9;c-1.2-8.1-2-16.2-2.3-24.4c-0.3-8.6-0.1-18.7,3.6-27.9c4.8-11.7,14-18.4,25-18.3c0.5-16,10.9-26,28.2-26.9&#10;&#9;&#9;c15.8-0.8,28.2,6.7,38,12.8c7.7,4.7,14.3,8.8,20.5,7.9c14.1-2,18.1-8.1,18.2-8.2c0.4-0.5,1-0.9,1.6-0.9c0.6,0,1.2,0.4,1.6,0.9&#10;&#9;&#9;c0.1,0.2,8.4,14.8-1.1,29.9c2,0.1,3.9,0.8,5.6,1.9c3.5,2.4,5.5,6.6,6,12.6c1.5,16.2-7.8,57.8-8.2,59.5c-0.2,1-1.2,1.6-2.1,1.4&#10;&#9;&#9;l-11-1.9c-2.9-0.5-6.4-0.2-9.7,0.1c-1.7,0.2-3.4,0.3-4.9,0.4l-34.4,1.1c-4.3,0.1-9.3,0.6-14.6,1.1&#10;&#9;&#9;C137.9,240.1,129.4,240.9,121,240.9z M111.5,151.4c-9.4,0-17.1,5.7-21.3,16c-3.5,8.5-3.7,18.1-3.4,26.4c0.3,8,1,16,2.2,23.9&#10;&#9;&#9;c0.2,1.2,0.3,2.3,0.5,3.4c0.8,6.5,1.3,10.4,7.3,12.6c13.6,5.1,32.8,3.4,48.2,2.1c5.4-0.5,10.5-0.9,14.9-1.1l34.4-1.1&#10;&#9;&#9;c1.4,0,3-0.2,4.7-0.4c3.6-0.3,7.4-0.7,10.7-0.1l0,0l9.3,1.6c1.8-8.1,9-42.8,7.8-56.7c-0.4-4.9-1.9-8.2-4.4-9.9&#10;&#9;&#9;c-2-1.3-4.5-1.6-6.8-1.1c-0.8,0.2-1.6-0.1-2.1-0.8c-0.4-0.7-0.4-1.5,0.1-2.2c6.3-7.4,7.9-17.7,4.2-26.7c-2.7,2.4-8.2,6.1-18.7,7.6&#10;&#9;&#9;c-7.5,1.1-14.6-3.3-22.9-8.4c-9.9-6.1-21.2-13-35.9-12.2c-16,0.8-25.1,10-24.8,25.1c0,0.5-0.2,1-0.6,1.4c-0.4,0.3-0.9,0.5-1.4,0.5&#10;&#9;&#9;C112.8,151.4,112.2,151.4,111.5,151.4L111.5,151.4z"/>
	<ellipse class="st7_profile-analysis-41" cx="106.8" cy="238.6" rx="17.2" ry="14.9"/>
	<path class="st1_profile-analysis-41" d="M106.8,255.3c-10.5,0-19.1-7.5-19.1-16.7s8.6-16.7,19.1-16.7s19.1,7.5,19.1,16.7S117.3,255.3,106.8,255.3z&#10;&#9;&#9; M106.8,225.6c-8.5,0-15.4,5.8-15.4,13s6.9,13,15.4,13s15.4-5.8,15.4-13S115.2,225.6,106.8,225.6z"/>
	<ellipse class="st7_profile-analysis-41" cx="207.2" cy="238.6" rx="17.2" ry="14.9"/>
	<path class="st1_profile-analysis-41" d="M207.2,255.3c-10.5,0-19.1-7.5-19.1-16.7s8.6-16.7,19.1-16.7s19.1,7.5,19.1,16.7S217.7,255.3,207.2,255.3z&#10;&#9;&#9; M207.2,225.6c-8.5,0-15.4,5.8-15.4,13s6.9,13,15.4,13s15.4-5.8,15.4-13S215.7,225.6,207.2,225.6z"/>
	<path class="st7_profile-analysis-41" d="M157.4,287L157.4,287c-28.7,0-52-23.3-52-52v-37.7c3,5,13.1,3,27.9-22.4c55.3,28.1,76,12,76,12V235&#10;&#9;&#9;C209.4,263.7,186.1,287,157.4,287z"/>
	<path class="st1_profile-analysis-41" d="M157.4,288.8c-29.7,0-53.8-24.1-53.8-53.8v-37.7c0-1,0.8-1.9,1.8-1.9c0.7,0,1.3,0.3,1.6,0.9&#10;&#9;&#9;c0.5,0.9,1.4,1.4,2.4,1.3l0,0c2,0,9.6-1.8,22.3-23.6c0.5-0.8,1.6-1.2,2.4-0.7c53.4,27,73.9,12.3,74.1,12.2c0.8-0.6,2-0.5,2.6,0.3&#10;&#9;&#9;c0.3,0.3,0.4,0.7,0.4,1.2V235C211.2,264.7,187.2,288.8,157.4,288.8z M107.3,201v34c0,27.7,22.4,50.1,50.1,50.1s50.1-22.4,50.1-50.1&#10;&#9;&#9;v-45c-7.5,3.4-29.6,9.1-73.5-12.7c-9.2,15.4-17.9,23.9-24.6,24C108.8,201.3,108,201.2,107.3,201z"/>
	<circle class="st1_profile-analysis-41" cx="135" cy="227.5" r="4.8"/>
	<circle class="st1_profile-analysis-41" cx="179.9" cy="227.5" r="4.8"/>
	<path class="st1_profile-analysis-41" d="M157.3,249.2c-1.6,0-3.2-0.1-4.7-0.4c-1-0.1-1.7-1.1-1.6-2.1c0.1-1,1.1-1.7,2.1-1.6c0.1,0,0.1,0,0.2,0&#10;&#9;&#9;c2.2,0.4,4.5,0.4,6.8,0.1c0.1-1.6-1.7-6.5-4-10.9c-0.5-0.9-0.1-2,0.8-2.5c0.9-0.4,2-0.1,2.4,0.8c1.7,3.3,5.5,11.2,4.1,14.4&#10;&#9;&#9;c-0.4,0.8-1.1,1.5-2,1.7C160,249.1,158.7,249.2,157.3,249.2z"/>
	<path class="st3_profile-analysis-41" d="M152.1,304.1h9c1.1,0,2.1,0.9,2.1,2.1v6.2c0,1.1-0.9,2.1-2.1,2.1h-9c-1.1,0-2.1-0.9-2.1-2.1v-6.2&#10;&#9;&#9;C150,305.1,150.9,304.1,152.1,304.1z"/>
	<path class="st1_profile-analysis-41" d="M159.3,316.3h-5.5c-3.1,0-5.7-2.5-5.7-5.7v-2.7c0-3.1,2.5-5.7,5.7-5.7h5.5c3.1,0,5.7,2.5,5.7,5.7l0,0v2.7&#10;&#9;&#9;C165,313.8,162.4,316.3,159.3,316.3L159.3,316.3z M153.8,306c-1.1,0-2,0.9-2,2v2.7c0,1.1,0.9,2,2,2h5.5c1.1,0,2-0.9,2-2V308&#10;&#9;&#9;c0-1.1-0.9-2-2-2H153.8z"/>
	<polygon class="st3_profile-analysis-41" points="164.2,348.3 156.6,377.3 148.1,345.9 152.8,314.5 160.3,314.5 &#9;"/>
	<path class="st1_profile-analysis-41" d="M156.6,379.1c-0.8,0-1.6-0.6-1.8-1.4l-8.5-31.4c0-0.2,0-0.5,0-0.8l4.7-31.4c0.1-0.9,0.9-1.6,1.8-1.6h7.5&#10;&#9;&#9;c0.9,0,1.7,0.7,1.8,1.6l3.9,33.9c0,0.2,0,0.5-0.1,0.7l-7.6,29C158.2,378.6,157.4,379.1,156.6,379.1L156.6,379.1z M150,345.8&#10;&#9;&#9;l6.6,24.4l5.8-21.9l-3.7-31.9h-4.3L150,345.8z"/>
	<path class="st1_profile-analysis-41" d="M121.7,387.7c-1,0-1.8-0.8-1.8-1.8c0,0,0,0,0,0v-64c-0.1-1,0.7-1.9,1.7-2c1-0.1,1.9,0.7,2,1.7&#10;&#9;&#9;c0,0.1,0,0.2,0,0.3v64C123.5,386.9,122.7,387.7,121.7,387.7C121.7,387.7,121.7,387.7,121.7,387.7z"/>
	<path class="st1_profile-analysis-41" d="M190.7,387.7c-1,0-1.9-0.8-1.9-1.9l0,0v-64c-0.1-1,0.7-1.9,1.7-2c1-0.1,1.9,0.7,2,1.7c0,0.1,0,0.2,0,0.3v64&#10;&#9;&#9;C192.5,386.9,191.7,387.7,190.7,387.7C190.7,387.7,190.7,387.7,190.7,387.7z"/>
	<path class="st1_profile-analysis-41" d="M144,216.2h-25c-2,0-3.7-1.7-3.7-3.7s1.7-3.7,3.7-3.7h25c2,0,3.7,1.7,3.7,3.7S146,216.2,144,216.2z"/>
	<path class="st1_profile-analysis-41" d="M196,216.2h-25.1c-2,0-3.7-1.7-3.7-3.7s1.7-3.7,3.7-3.7H196c2,0,3.7,1.7,3.7,3.7S198,216.2,196,216.2z"/>
	<path class="st1_profile-analysis-41" d="M156.7,263.3c-4,0-8-0.4-11.9-1.1c-1-0.2-1.7-1.2-1.5-2.2c0.2-1,1.2-1.7,2.2-1.5c0.1,0,15.1,2.9,23.3-1.1&#10;&#9;&#9;c0.9-0.4,2-0.1,2.5,0.9c0.4,0.9,0.1,2-0.9,2.5C166.4,262.7,161.3,263.3,156.7,263.3z"/>
</g>
<g id="magnifying-glass_profile-analysis-41">
	
		<rect x="389" y="261.7" transform="matrix(0.8167 -0.577 0.577 0.8167 -86.6994 279.7081)" class="st1_profile-analysis-41" width="16.1" height="29.4"/>
	<path class="st1_profile-analysis-41" d="M398.9,294.8c-0.1,0-0.2,0-0.3,0c-0.5-0.1-0.9-0.4-1.2-0.8l-16.9-24c-0.6-0.8-0.4-2,0.4-2.6c0,0,0,0,0,0&#10;&#9;&#9;l13.1-9.3c0.4-0.3,0.9-0.4,1.4-0.3c0.5,0.1,0.9,0.4,1.2,0.8l16.9,24c0.6,0.8,0.4,2-0.4,2.6c0,0,0,0,0,0l-13.1,9.3&#10;&#9;&#9;C399.7,294.7,399.3,294.8,398.9,294.8z M384.5,269.4l14.8,21l10.1-7.1l-14.8-21L384.5,269.4z"/>
	
		<rect x="371.4" y="242.9" transform="matrix(0.8167 -0.577 0.577 0.8167 -78.3034 268.6137)" class="st6_profile-analysis-41 targetColor" width="24.7" height="29.4" style="fill: rgb(104, 225, 253);"/>
	<path class="st1_profile-analysis-41" d="M382.1,278.5h-0.3c-0.5-0.1-0.9-0.4-1.2-0.8l-16.9-24c-0.6-0.8-0.4-2,0.4-2.6c0,0,0,0,0,0l20.1-14.2&#10;&#9;&#9;c0.8-0.6,2-0.4,2.6,0.4c0,0,0,0,0,0l16.9,24c0.6,0.8,0.4,2-0.4,2.6c0,0,0,0,0,0l-20.2,14.2C382.9,278.4,382.5,278.5,382.1,278.5z&#10;&#9;&#9; M367.8,253.1l14.8,21l17.1-12.1l-14.8-21L367.8,253.1z"/>
	<path class="st6_profile-analysis-41 targetColor" d="M449.7,334.4l-15.5,11c-1.3,0.9-3.1,0.6-4-0.7l-35.5-50.3c-0.9-1.3-0.6-3.1,0.7-4l15.5-11&#10;&#9;&#9;c1.3-0.9,3.1-0.6,4,0.7l35.5,50.3C451.2,331.8,450.9,333.5,449.7,334.4z" style="fill: rgb(104, 225, 253);"/>
	<path class="st1_profile-analysis-41" d="M433.1,346.8c-2.3,0-4.5-1.1-5.8-3l-32.8-46.4c-2.3-3.2-1.5-7.6,1.7-9.9l11.6-8.2c3.2-2.3,7.6-1.5,9.9,1.7&#10;&#9;&#9;l32.8,46.4c2.3,3.2,1.5,7.6-1.7,9.9l-11.6,8.2C436,346.3,434.6,346.8,433.1,346.8z M411.9,281.8c-0.7,0-1.4,0.2-2,0.6l-11.6,8.2&#10;&#9;&#9;c-1.5,1.1-1.9,3.2-0.8,4.7c0,0,0,0,0,0l32.7,46.4c0.5,0.7,1.3,1.2,2.2,1.3c0.9,0.2,1.8,0,2.5-0.6l0,0l11.6-8.2&#10;&#9;&#9;c1.5-1.1,1.9-3.2,0.8-4.8l-32.8-46.4C414,282.2,413,281.7,411.9,281.8L411.9,281.8z"/>
	<path class="st6_profile-analysis-41 targetColor" d="M305.1,246.8c18.5,26.2,54.7,32.4,80.8,13.9s32.4-54.7,13.9-80.8s-54.7-32.4-80.8-13.9c0,0,0,0-0.1,0&#10;&#9;&#9;C292.9,184.5,286.7,220.6,305.1,246.8z M320.9,235.7c-12.3-17.5-8.2-41.6,9.3-54c17.5-12.3,41.6-8.2,54,9.3&#10;&#9;&#9;c12.3,17.5,8.2,41.6-9.3,53.9C357.4,257.3,333.3,253.2,320.9,235.7C320.9,235.7,320.9,235.7,320.9,235.7z" style="fill: rgb(104, 225, 253);"/>
	<path class="st1_profile-analysis-41" d="M352.6,273.2c-3.4,0-6.9-0.3-10.3-0.9c-15.7-2.7-29.6-11.5-38.7-24.5l0,0c-19-27-12.6-64.3,14.4-83.3&#10;&#9;&#9;s64.3-12.6,83.3,14.4c19,27,12.6,64.3-14.4,83.3C376.9,269.3,364.9,273.2,352.6,273.2L352.6,273.2z M306.6,245.7&#10;&#9;&#9;c17.9,25.3,52.9,31.4,78.3,13.5c25.3-17.9,31.4-52.9,13.5-78.3c-17.9-25.3-52.9-31.4-78.3-13.5c0,0,0,0,0,0&#10;&#9;&#9;c-25.3,17.6-31.5,52.3-13.9,77.6C306.3,245.3,306.5,245.5,306.6,245.7z M352.6,253.9c-2.3,0-4.7-0.2-7-0.6&#10;&#9;&#9;c-10.6-1.8-20.1-7.8-26.3-16.6l0,0c-12.9-18.3-8.5-43.6,9.8-56.5c18.3-12.9,43.6-8.5,56.5,9.8c12.9,18.3,8.5,43.6-9.8,56.5&#10;&#9;&#9;C369,251.3,360.9,253.9,352.6,253.9L352.6,253.9z M322.4,234.6c11.8,16.6,34.8,20.6,51.4,8.8c16.6-11.8,20.6-34.8,8.8-51.4&#10;&#9;&#9;s-34.8-20.6-51.4-8.8c0,0,0,0,0,0c-16.6,11.6-20.7,34.4-9.1,51C322.2,234.3,322.3,234.5,322.4,234.6L322.4,234.6z"/>
	<path class="st4_profile-analysis-41" d="M384.5,235.2c-2.6,3.8-5.8,7.1-9.6,9.8c-17.5,12.4-41.7,8.2-54-9.3s-8.2-41.7,9.3-54&#10;&#9;&#9;c17.5-12.4,41.7-8.2,54,9.3C393.5,204.2,393.6,221.8,384.5,235.2z"/>
	<path class="st1_profile-analysis-41" d="M352.6,253.9c-2.3,0-4.7-0.2-7-0.6c-22.1-3.8-36.9-24.8-33.1-46.8s24.8-36.9,46.8-33.1&#10;&#9;&#9;c10.6,1.8,20.1,7.8,26.3,16.6c9.7,13.9,9.9,32.3,0.3,46.3C378.4,247.3,365.9,253.9,352.6,253.9L352.6,253.9z M352.5,176.4&#10;&#9;&#9;c-20.4,0-36.9,16.5-36.9,36.8s16.5,36.9,36.8,36.9c7.7,0,15.1-2.4,21.4-6.8c3.6-2.5,6.7-5.7,9.2-9.3l0,0&#10;&#9;&#9;c11.5-16.8,7.2-39.8-9.7-51.3C367.2,178.7,359.9,176.4,352.5,176.4L352.5,176.4z"/>
	<path class="st0_profile-analysis-41" d="M384.5,235.2l-32-21.8v-38.7l0,0c21.4,0,38.7,17.3,38.8,38.7C391.2,221.1,388.9,228.7,384.5,235.2L384.5,235.2&#10;&#9;&#9;z"/>
	<path class="st1_profile-analysis-41" d="M384.5,237c-0.4,0-0.7-0.1-1-0.3l-32-21.8c-0.5-0.3-0.8-0.9-0.8-1.5v-38.7c0-0.5,0.2-1,0.6-1.3&#10;&#9;&#9;c0.3-0.3,0.8-0.5,1.3-0.5l0,0c22.4,0,40.6,18.2,40.6,40.6c0,8.2-2.5,16.1-7.1,22.9C385.7,236.7,385.1,237,384.5,237z M354.4,212.3&#10;&#9;&#9;l29.6,20.2c10.6-17.4,5.2-40.1-12.2-50.7c-5.3-3.2-11.3-5.1-17.4-5.4L354.4,212.3z"/>
</g>
</svg>